<svg xmlns="http://www.w3.org/2000/svg" viewBox="0 0 64 64" width="64" height="64">
  <rect width="64" height="64" rx="14" fill="#3a6ff0"/>
  <path d="M32 14c-8 0-14 5-14 13 0 3 1 5 2 7-1 1-2 3-2 5 0 6 6 9 14 9s14-3 14-9c0-2-1-4-2-5 1-2 2-4 2-7 0-8-6-13-14-13z" fill="#fff"/>
  <circle cx="26" cy="33" r="2.4" fill="#3a6ff0"/>
  <circle cx="38" cy="33" r="2.4" fill="#3a6ff0"/>
  <path d="M27 40c1.5 2 8.5 2 10 0" stroke="#3a6ff0" stroke-width="2.4" fill="none" stroke-linecap="round"/>
  <circle cx="32" cy="10" r="3" fill="#fff"/>
</svg>
